<?xml version="1.0" encoding="UTF-8" standalone="no"?>
<!DOCTYPE svg PUBLIC "-//W3C//DTD SVG 1.1//EN" "http://www.w3.org/Graphics/SVG/1.1/DTD/svg11.dtd">
<svg xmlns="http://www.w3.org/2000/svg" xmlns:xlink="http://www.w3.org/1999/xlink" version="1.1" width="1200pt" height="1200pt" viewBox="0 0 1200 1200">
<g enable-background="new">
<path d="M 0 0 L 1200 0 L 1200 1200 L 0 1200 Z "/>
<path transform="matrix(1200,0,0,1200,0,0)" d="M 0 0 L 1 0 L 1 1 L 0 1 Z " fill="#e4e4e4"/>
<path transform="matrix(9.042109,0,0,9.042109,148.03586,147.73299)" d="M 84.695 34.375 C 86.4645 34.375 87.9567 33.81641 89.0114 32.7617 C 92.3708 29.4023 90.2223 21.9847 84.1208 15.8787 C 80.1091 11.867 75.2927 9.3748 71.5548 9.3748 C 69.7853 9.3748 68.2931 9.93339 67.2384 10.9881 C 63.879 14.3475 66.0275 21.7651 72.129 27.8711 C 76.1407 31.8828 80.9571 34.375 84.695 34.375 Z M 86.8005 30.5508 C 86.33566 31.01564 85.6286 31.25002 84.695 31.25002 C 83.6442 31.25002 82.4372 30.95314 81.1638 30.4219 L 86.6638 24.9219 C 87.7185 27.4571 87.7771 29.5742 86.80052 30.5508 Z M 69.4485 13.1988 C 69.91334 12.73396 70.6204 12.49958 71.554 12.49958 C 72.6048 12.49958 73.8118 12.79646 75.0852 13.3277 L 69.5852 18.8277 C 68.5305 16.2925 68.4719 14.1754 69.44848 13.1988 Z " fill="#207178"/>
<path transform="matrix(9.042109,0,0,9.042109,148.03586,147.73299)" d="M 26.562 31.25 C 26.562 37.5 17.187 37.5 17.187 31.25 C 17.187 25 26.562 25 26.562 31.25 " fill="#207178"/>
<path transform="matrix(9.042109,0,0,9.042109,148.03586,147.73299)" d="M 82.812 65.625 C 82.812 71.875 73.437 71.875 73.437 65.625 C 73.437 59.375 82.812 59.375 82.812 65.625 " fill="#207178"/>
<path transform="matrix(9.042109,0,0,9.042109,148.03586,147.73299)" d="M 73.707 73.707 C 70.6015 76.8125 65.2539 77.4179 58.645 75.4062 C 51.6997 73.2929 44.325 68.5781 37.875 62.1292 C 30.5039 54.7581 25.453 46.1762 23.937 38.7542 C 23.27294 38.93389 22.5932 39.06279 21.8745 39.06279 C 21.50731 39.06279 21.15575 39.004198 20.7964 38.95341 C 21.9683 45.06281 25.2964 51.84041 30.2261 58.18741 L 25.437 62.97651 C 22.6636 61.09761 19.8354 59.67181 17.1323 58.81241 C 17.144019 58.99991 17.186989 59.1835 17.186989 59.37491 C 17.186989 60.28116 16.999489 61.14051 16.714329 61.94911 C 18.812029 62.67567 21.007328 63.79291 23.190928 65.22251 L 8.893928 79.51951 C 7.304128 77.09761 6.093128 74.62501 5.366628 72.23431 C 4.597098 69.70701 4.429128 67.48821 4.823658 65.69131 C 3.827568 64.97256 3.026758 64.02331 2.460358 62.92571 C 1.202558 65.61321 1.155658 69.13271 2.378326 73.14471 C 3.913526 78.18381 7.292426 83.49671 11.897826 88.10171 C 16.499426 92.70721 21.815827 96.08611 26.854826 97.62121 C 28.811827 98.21887 30.651726 98.51183 32.335329 98.51183 C 35.280626 98.51183 37.745527 97.60949 39.518926 95.83603 C 40.128309 95.22665 40.600927 94.49623 41.007226 93.71103 C 40.874418 93.71884 40.753316 93.75009 40.624418 93.75009 C 39.581418 93.75009 38.589216 93.535259 37.679117 93.164157 C 37.554117 93.320407 37.448648 93.48837 37.308027 93.62899 C 35.374429 95.56259 31.983826 95.91809 27.765027 94.63289 C 25.374426 93.906337 22.905627 92.69539 20.479826 91.10559 L 34.776826 76.80859 C 35.343236 77.67578 35.878427 78.54299 36.339326 79.41799 C 37.206518 78.84768 38.190927 78.453159 39.249528 78.261798 C 38.604997 77.01959 37.843328 75.785198 37.019029 74.56259 L 41.819826 69.761798 C 46.991727 73.78909 52.460828 76.78909 57.729829 78.39459 C 60.585329 79.26178 63.261026 79.69149 65.70643 79.69149 C 69.905628 79.69149 73.40952 78.41809 75.91743 75.91029 C 76.659618 75.1681 77.26903 74.31649 77.79243 73.39859 C 76.65962 73.351718 75.60493 73.058757 74.64793 72.578289 C 74.36276 72.984539 74.05026 73.359539 73.70651 73.707187 Z " fill="#207178"/>
<path transform="matrix(9.042109,0,0,9.042109,148.03586,147.73299)" d="M 14.062 59.375 C 14.062 65.625 4.687 65.625 4.687 59.375 C 4.687 53.125 14.062 53.125 14.062 59.375 " fill="#207178"/>
<path transform="matrix(9.042109,0,0,9.042109,148.03586,147.73299)" d="M 45.312 85.938 C 45.312 92.188 35.937 92.188 35.937 85.938 C 35.937 79.688 45.312 79.688 45.312 85.938 " fill="#207178"/>
<path transform="matrix(9.042109,0,0,9.042109,148.03586,147.73299)" d="M 45.312 31.25 C 45.312 37.5 35.937 37.5 35.937 31.25 C 35.937 25 45.312 25 45.312 31.25 " fill="#207178"/>
<path transform="matrix(9.042109,0,0,9.042109,148.03586,147.73299)" d="M 64.062 9.375 C 64.062 15.625 54.687 15.625 54.687 9.375 C 54.687 3.125 64.062 3.125 64.062 9.375 " fill="#207178"/>
<path transform="matrix(9.042109,0,0,9.042109,148.03586,147.73299)" d="M 88.07 11.93 C 83.4645 7.3245 78.152 3.9456 73.113 2.4105 C 69.1286 1.1996 65.6364 1.2386 62.957 2.469094 C 64.0547 3.039404 65.0039 3.844094 65.7226 4.844094 C 67.5117 4.465184 69.707 4.637064 72.207 5.398784 C 76.7656 6.785484 81.6132 9.890984 85.863 14.140984 C 94.2458 22.523785 97.789 33.148984 93.5974 37.343984 C 91.6638 39.277585 88.2771 39.636987 84.0544 38.351785 C 79.4958 36.965085 74.6442 33.859586 70.3984 29.609585 C 66.414 25.621285 63.4101 20.984585 61.9375 16.722584 C 61.125 17.003834 60.2734 17.187424 59.375 17.187424 C 59.16797 17.187424 58.96875 17.140549 58.76562 17.124924 C 59.6289 19.863224 61.06252 22.703024 62.93752 25.476525 L 58.17582 30.238224 C 45.15282 20.105225 31.15282 17.433224 24.33182 23.871024 C 25.40212 24.230404 26.37482 24.796805 27.18342 25.550724 C 33.02322 21.136624 44.89042 23.976525 55.95342 32.460924 L 53.64482 34.769525 C 51.90262 33.597627 50.13702 32.609327 48.37922 31.816424 C 48.301095 32.906225 48.00031 33.925825 47.51984 34.847627 C 48.80104 35.453096 50.09014 36.210924 51.37144 37.042924 L 37.09044 51.323926 C 35.50064 48.902025 34.28964 46.429426 33.55924 44.038724 C 32.42644 40.319925 32.57486 37.249624 33.94596 35.249624 C 33.33659 34.241827 32.96549 33.085527 32.87176 31.851225 C 32.69988 31.995755 32.51629 32.128564 32.35614 32.288724 C 29.56704 35.077825 28.93424 39.573926 30.56704 44.952726 C 32.10224 49.991827 35.48114 55.304727 40.08654 59.909727 C 44.69204 64.51522 50.00454 67.89413 55.04354 69.42922 C 57.00054 70.02297 58.84044 70.31985 60.52404 70.31985 C 63.46934 70.31985 65.93424 69.4175 67.70764 67.64404 C 72.03964 63.312044 71.00844 54.863046 65.22324 46.355047 L 67.53574 44.046445 C 71.18804 48.800344 73.85214 53.722246 75.29744 58.362447 C 76.18025 58.018697 77.12554 57.811666 78.12554 57.811666 C 78.21929 57.811666 78.30523 57.835103 78.39898 57.83901 C 76.83648 52.612409 73.87168 47.093008 69.76618 41.819009 L 74.51618 37.06511 C 77.35998 38.998708 80.28958 40.47131 83.13728 41.33851 C 85.09428 41.93226 86.93418 42.22913 88.61778 42.22913 C 91.56308 42.22913 94.02798 41.32679 95.80138 39.55333 C 101.37948 33.975229 97.98108 21.842328 88.07088 11.928328 Z M 65.504 65.43 C 63.5704 67.3636 60.1837 67.723 55.961 66.4378 C 53.5704 65.71124 51.1016 64.5003 48.6758 62.9066 L 62.9848 48.5976 C 67.5473 55.5507 68.6176 62.3206 65.5043 65.4296 Z " fill="#207178"/>
</g>
</svg>
